HIERARCHY
ROOT hip
{
  OFFSET 0 0 0
  CHANNELS 6 Xposition Yposition Zposition Zrotation Yrotation Xrotation
  JOINT abdomen
  {
    OFFSET 0 20.6881 -0.73152
    CHANNELS 3 Zrotation Xrotation Yrotation
    JOINT chest
    {
      OFFSET 0 11.7043 -0.48768
      CHANNELS 3 Zrotation Xrotation Yrotation
      JOINT neck
      {
        OFFSET 0 22.1894 -2.19456
        CHANNELS 3 Zrotation Xrotation Yrotation
        JOINT head
        {
          OFFSET -0.24384 7.07133 1.2192
          CHANNELS 3 Zrotation Xrotation Yrotation
          JOINT leftEye
          {
            OFFSET 4.14528 8.04674 8.04672
            CHANNELS 3 Zrotation Xrotation Yrotation
            End Site
            {
              OFFSET 1 0 0
            }
          }
          JOINT rightEye
          {
            OFFSET -3.6576 8.04674 8.04672
            CHANNELS 3 Zrotation Xrotation Yrotation
            End Site
            {
              OFFSET 1 0 0
            }
          }
        }
      }
      JOINT rCollar
      {
        OFFSET -2.68224 19.2634 -4.8768
        CHANNELS 3 Zrotation Xrotation Yrotation
        JOINT rShldr
        {
          OFFSET -8.77824 -1.95073 1.46304
          CHANNELS 3 Zrotation Xrotation Yrotation
          JOINT rForeArm
          {
            OFFSET -28.1742 -1.7115 0.48768
            CHANNELS 3 Zrotation Xrotation Yrotation
            JOINT rHand
            {
              OFFSET -22.5879 0.773209 7.07136
              CHANNELS 3 Zrotation Xrotation Yrotation
              JOINT rThumb1
              {
                OFFSET -1.2192 -0.487915 3.41376
                CHANNELS 3 Zrotation Xrotation Yrotation
                JOINT rThumb2
                {
                  OFFSET -3.37035 -0.52449 3.41376
                  CHANNELS 3 Zrotation Xrotation Yrotation
                  End Site
                  {
                    OFFSET -1.78271 -1.18214 1.43049
                  }
                }
              }
              JOINT rIndex1
              {
                OFFSET -7.75947 0.938293 5.60832
                CHANNELS 3 Zrotation Xrotation Yrotation
                JOINT rIndex2
                {
                  OFFSET -2.54057 -0.884171 1.56538
                  CHANNELS 3 Zrotation Xrotation Yrotation
                  End Site
                  {
                    OFFSET -1.62519 -0.234802 1.16502
                  }
                }
              }
              JOINT rMid1
              {
                OFFSET -8.24714 1.18213 3.41376
                CHANNELS 3 Zrotation Xrotation Yrotation
                JOINT rMid2
                {
                  OFFSET -3.10165 -0.590103 1.0647
                  CHANNELS 3 Zrotation Xrotation Yrotation
                  End Site
                  {
                    OFFSET -2.48547 -0.328903 0.83742
                  }
                }
              }
              JOINT rRing1
              {
                OFFSET -8.82822 0.546677 1.51678
                CHANNELS 3 Zrotation Xrotation Yrotation
                JOINT rRing2
                {
                  OFFSET -2.60934 -0.819778 -0.0198488
                  CHANNELS 3 Zrotation Xrotation Yrotation
                  End Site
                  {
                    OFFSET -2.33842 -0.294052 0.168128
                  }
                }
              }
              JOINT rPinky1
              {
                OFFSET -8.27202 -0.0477905 -0.4584
                CHANNELS 3 Zrotation Xrotation Yrotation
                JOINT rPinky2
                {
                  OFFSET -1.82734 -0.647385 -0.700984
                  CHANNELS 3 Zrotation Xrotation Yrotation
                  End Site
                  {
                    OFFSET -1.69225 -0.51767 -0.607171
                  }
                }
              }
            }
          }
        }
      }
      JOINT lCollar
      {
        OFFSET 2.68224 19.2634 -4.8768
        CHANNELS 3 Zrotation Xrotation Yrotation
        JOINT lShldr
        {
          OFFSET 8.77824 -1.95073 1.46304
          CHANNELS 3 Zrotation Xrotation Yrotation
          JOINT lForeArm
          {
            OFFSET 28.1742 -1.7115 0.48768
            CHANNELS 3 Zrotation Xrotation Yrotation
            JOINT lHand
            {
              OFFSET 22.5879 0.773209 7.07136
              CHANNELS 3 Zrotation Xrotation Yrotation
              JOINT lThumb1
              {
                OFFSET 1.2192 -0.487915 3.41376
                CHANNELS 3 Zrotation Xrotation Yrotation
                JOINT lThumb2
                {
                  OFFSET 3.37035 -0.52449 3.41376
                  CHANNELS 3 Zrotation Xrotation Yrotation
                  End Site
                  {
                    OFFSET 1.78271 -1.18214 1.43049
                  }
                }
              }
              JOINT lIndex1
              {
                OFFSET 7.75947 0.938293 5.60832
                CHANNELS 3 Zrotation Xrotation Yrotation
                JOINT lIndex2
                {
                  OFFSET 2.54057 -0.884171 1.56538
                  CHANNELS 3 Zrotation Xrotation Yrotation
                  End Site
                  {
                    OFFSET 1.62519 -0.234802 1.16502
                  }
                }
              }
              JOINT lMid1
              {
                OFFSET 8.24714 1.18213 3.41376
                CHANNELS 3 Zrotation Xrotation Yrotation
                JOINT lMid2
                {
                  OFFSET 3.10165 -0.590103 1.0647
                  CHANNELS 3 Zrotation Xrotation Yrotation
                  End Site
                  {
                    OFFSET 2.48547 -0.328903 0.83742
                  }
                }
              }
              JOINT lRing1
              {
                OFFSET 8.82822 0.546677 1.51678
                CHANNELS 3 Zrotation Xrotation Yrotation
                JOINT lRing2
                {
                  OFFSET 2.60934 -0.819778 -0.0198488
                  CHANNELS 3 Zrotation Xrotation Yrotation
                  End Site
                  {
                    OFFSET 2.33842 -0.294052 0.168128
                  }
                }
              }
              JOINT lPinky1
              {
                OFFSET 8.27202 -0.0477905 -0.4584
                CHANNELS 3 Zrotation Xrotation Yrotation
                JOINT lPinky2
                {
                  OFFSET 1.82734 -0.647385 -0.700984
                  CHANNELS 3 Zrotation Xrotation Yrotation
                  End Site
                  {
                    OFFSET 1.69225 -0.51767 -0.607171
                  }
                }
              }
            }
          }
        }
      }
    }
  }
  JOINT rButtock
  {
    OFFSET -8.77824 4.35084 1.2192
    CHANNELS 3 Zrotation Xrotation Yrotation
    JOINT rThigh
    {
      OFFSET 0 -1.70687 -2.19456
      CHANNELS 3 Zrotation Xrotation Yrotation
      JOINT rShin
      {
        OFFSET 0 -36.8199 0.73152
        CHANNELS 3 Zrotation Xrotation Yrotation
        JOINT rFoot
        {
          OFFSET 0.73152 -45.1104 -5.12064
          CHANNELS 3 Zrotation Xrotation Yrotation
          End Site
          {
            OFFSET -1.1221 -3.69964 12.103
          }
        }
      }
    }
  }
  JOINT lButtock
  {
    OFFSET 8.77824 4.35084 1.2192
    CHANNELS 3 Zrotation Xrotation Yrotation
    JOINT lThigh
    {
      OFFSET 0 -1.70687 -2.19456
      CHANNELS 3 Zrotation Xrotation Yrotation
      JOINT lShin
      {
        OFFSET 0 -36.8199 0.73152
        CHANNELS 3 Zrotation Xrotation Yrotation
        JOINT lFoot
        {
          OFFSET -0.73152 -45.1104 -5.12064
          CHANNELS 3 Zrotation Xrotation Yrotation
          End Site
          {
            OFFSET 1.1221 -3.69964 12.103
          }
        }
      }
    }
  }
}
MOTION
Frames:	4
Frame Time:	0.00833333
55.2288 85.1388 124.309 0.0 0.0 0.0 0.41059 -0.00336424 0.0117806 0.113459 -0.00539519 0.0196593 -2.05302e-15 7.95139e-16 -4.34842e-17 -6.358e-15 9.54166e-15 -9.78393e-17 -0.0 0.0 0.0 -0.0 0.0 0.0 -1.045e-15 -3.10601e-18 9.93923e-17 -2.03105e-14 -2.48481e-17 5.96354e-16 -3.82362e-13 1.12115e-13 -3.18055e-15 -4.4006e-12 -1.33061e-13 -6.67917e-14 -1.03791e-11 -4.72487e-14 -1.49486e-13 -1.79351e-11 -7.95139e-14 -2.48083e-13 -1.0377e-11 -4.85035e-14 -1.52667e-13 7.73091 5.47488 0.417314 -1.03791e-11 -4.80065e-14 -1.43125e-13 2.90554 0.965183 0.102902 -1.0375e-11 -4.76089e-14 -1.47896e-13 10.2786 0.731801 0.0259123 -1.03885e-11 -4.45278e-14 -1.39944e-13 2.22167 -0.733487 -0.20892 -1.1417e-15 -3.49426e-18 -9.93923e-17 -2.42273e-14 1.67725e-16 -1.39149e-15 -3.85791e-13 -1.18277e-13 2.54444e-14 -4.39931e-12 1.00088e-13 -9.54166e-14 -1.03764e-11 -4.40977e-14 -1.49486e-13 -1.79097e-11 -7.63333e-14 -2.52854e-13 -1.03793e-11 -4.49253e-14 -1.36764e-13 -7.73091 5.47488 -0.417314 -1.03752e-11 -4.50247e-14 -1.52667e-13 -2.90554 0.965183 -0.102902 -1.03769e-11 -4.44284e-14 -1.48691e-13 -10.2786 0.731801 -0.0259123 -1.03708e-11 -4.13472e-14 -1.52667e-13 -2.22167 -0.733487 0.20892 -2.03217e-16 0.0 -3.88251e-19 0.770611 -4.17183 -0.0656818 -0.00265491 2.00555 -0.0182707 -0.461836 2.16687 0.0961017 2.03217e-16 0.0 3.88251e-19 -0.143229 -2.55995 0.0260683 0.00716316 -0.91409 0.0621715 0.453767 3.47457 -0.121224
55.5917 83.4781 118.54 178.514 -3.842 -153.801 -0.767897 -8.81068 -0.694899 0.820448 3.61346 -0.335019 -0.750104 4.53575 -0.823727 3.02072 -13.7475 -0.837879 -0.0 0.0 0.0 -0.0 0.0 0.0 -5.80097e-15 6.74408e-15 -2.8467e-14 22.8493 -1.18264 -1.56547 -2.99931 -1.18611 4.8591 0.0208444 3.21242 0.448942 -1.00121e-10 -3.8696e-10 3.05076e-10 -1.70649e-10 -6.70137e-10 5.28486e-10 -1.00117e-10 -3.86962e-10 3.05069e-10 7.73091 5.47488 0.417314 -1.00121e-10 -3.86962e-10 3.05081e-10 2.90554 0.965183 0.102902 -1.00114e-10 -3.86961e-10 3.05075e-10 10.2786 0.731801 0.0259123 -1.00129e-10 -3.86958e-10 3.05081e-10 2.22167 -0.733487 -0.20892 -5.96886e-15 6.74316e-15 -2.86533e-14 -21.243 3.83755 -1.173 2.08297 -0.727366 -3.45301 -0.032417 4.12879 -0.575576 2.36739e-10 3.80871e-12 -4.14141e-10 4.03613e-10 3.93579e-12 -7.19608e-10 2.36733e-10 3.80774e-12 -4.1413e-10 -7.73091 5.47488 -0.417314 2.36738e-10 3.80623e-12 -4.14146e-10 -2.90554 0.965183 -0.102902 2.36732e-10 3.8076e-12 -4.14144e-10 -10.2786 0.731801 -0.0259123 2.36745e-10 3.81103e-12 -4.14148e-10 -2.22167 -0.733487 0.20892 -2.03217e-16 0.0 -3.88251e-19 0.83383 -11.0748 1.71754 0.00193228 3.7309 0.035253 -0.62833 -2.58645 -1.98127 2.03217e-16 0.0 3.88251e-19 0.223656 -9.94362 -2.70097 0.00756199 1.57474 0.0203631 0.440518 1.49961 -0.422735
55.6449 83.338 118.729 178.709 -3.7621 -152.923 -2.25876 -18.1175 -1.4967 1.61542 7.43589 -0.713911 -1.40066 9.32684 -1.71602 5.71969 -28.254 -1.9091 -0.0 0.0 0.0 -0.0 0.0 0.0 -1.17256e-14 1.3218e-14 -6.23283e-14 46.9368 -2.39304 -3.21588 -5.95771 -2.41474 10.0117 -0.0121696 6.57993 0.924369 -1.89147e-10 -8.30544e-10 6.43775e-10 -3.219e-10 -1.43833e-09 1.11505e-09 -1.89142e-10 -8.30546e-10 6.43762e-10 7.73091 5.47488 0.417314 -1.89147e-10 -8.30546e-10 6.43778e-10 2.90554 0.965183 0.102902 -1.89138e-10 -8.30545e-10 6.43771e-10 10.2786 0.731801 0.0259123 -1.89154e-10 -8.30543e-10 6.43775e-10 2.22167 -0.733487 -0.20892 -1.1974e-14 1.32165e-14 -6.25022e-14 -43.5201 8.02522 -2.45228 4.21146 -1.49718 -7.14185 0.0253616 8.37047 -1.1775 5.30208e-10 1.67063e-11 -8.65928e-10 9.04706e-10 2.32749e-11 -1.50507e-09 5.30198e-10 1.67051e-11 -8.65919e-10 -7.73091 5.47488 -0.417314 5.30203e-10 1.67019e-11 -8.65935e-10 -2.90554 0.965183 -0.102902 5.30192e-10 1.67042e-11 -8.65934e-10 -10.2786 0.731801 -0.0259123 5.30213e-10 1.67081e-11 -8.65938e-10 -2.22167 -0.733487 0.20892 -2.03217e-16 0.0 -3.88251e-19 1.39398 -18.3455 3.7292 0.0032562 5.55514 0.0921429 -1.1826 -7.59468 -4.21593 2.03217e-16 0.0 3.88251e-19 -0.183985 -17.6873 -5.77305 0.0119377 4.20504 -0.023903 0.403704 -0.589346 -0.743036
55.676 83.2149 118.878 178.816 -3.5289 -152.233 -3.84077 -26.4084 -2.32655 2.37089 10.8496 -1.06135 -1.84959 13.5958 -2.53451 7.52021 -41.201 -3.24585 -0.0 0.0 0.0 -0.0 0.0 0.0 -1.53129e-14 2.02385e-14 -8.55997e-14 68.354 -3.5373 -4.7044 -8.40071 -3.45609 14.6013 -0.0903173 9.63488 1.36395 -2.79604e-10 -1.16079e-09 9.15528e-10 -4.76076e-10 -2.01025e-09 1.58595e-09 -2.79598e-10 -1.16079e-09 9.15511e-10 7.73091 5.47488 0.417314 -2.79604e-10 -1.16079e-09 9.15529e-10 2.90554 0.965183 0.102902 -2.79593e-10 -1.16079e-09 9.15521e-10 10.2786 0.731801 0.0259123 -2.7961e-10 -1.16079e-09 9.15524e-10 2.22167 -0.733487 -0.20892 -1.56232e-14 2.02365e-14 -8.57612e-14 -63.2497 11.4931 -3.58303 5.98732 -2.15042 -10.3656 0.156611 12.3813 -1.76327 7.30971e-10 1.15143e-11 -1.24212e-09 1.24666e-09 1.196e-11 -2.15832e-09 7.30958e-10 1.15131e-11 -1.24212e-09 -7.73091 5.47488 -0.417314 7.30964e-10 1.15087e-11 -1.24213e-09 -2.90554 0.965183 -0.102902 7.30949e-10 1.15117e-11 -1.24213e-09 -10.2786 0.731801 -0.0259123 7.30975e-10 1.15158e-11 -1.24214e-09 -2.22167 -0.733487 0.20892 -2.03217e-16 0.0 -3.88251e-19 2.36348 -24.7866 5.71571 0.00136801 7.18159 0.143177 -2.01139 -12.0275 -6.26796 2.03217e-16 0.0 3.88251e-19 -1.32507 -24.4846 -8.83302 0.0192884 6.5524 -0.0636769 0.351632 -2.44981 -1.02671
